General
Complete name                            : D:New.World.Disorder.10.Dust.and.Bones.2009.DVDRip.XviD-5t3alth.avi
Format                                   : AVI
Format/Info                              : Audio Video Interleave
File size                                : 700 MiB
Duration                                 : 49mn 10s
Overall bit rate                         : 1 990 Kbps
Writing application                      : VirtualDubMod 1.5.4.1 (build 2178/release)
Writing library                          : VirtualDubMod build 2178/release

Video
ID                                       : 0
Format                                   : MPEG-4 Visual
Format profile                           : Advanced Simple@L5
Format settings, BVOP                    : 1
Format settings, QPel                    : No
Format settings, GMC                     : No warppoints
Format settings, Matrix                  : Custom
Codec ID                                 : XVID
Codec ID/Hint                            : XviD
Duration                                 : 49mn 10s
Bit rate                                 : 1 854 Kbps
Width                                    : 608 pixels
Height                                   : 352 pixels
Display aspect ratio                     : 1.727
Frame rate                               : 29.970 fps
Color space                              : YUV
Chroma subsampling                       : 4:2:0
Bit depth                                : 8 bits
Scan type                                : Progressive
Compression mode                         : Lossy
Bits/(Pixel*Frame)                       : 0.289
Stream size                              : 652 MiB (93%)
Writing library                          : XviD 64

Audio
ID                                       : 1
Format                                   : MPEG Audio
Format version                           : Version 1
Format profile                           : Layer 3
Mode                                     : Joint stereo
Mode extension                           : MS Stereo
Codec ID                                 : 55
Codec ID/Hint                            : MP3
Duration                                 : 49mn 10s
Bit rate mode                            : Constant
Bit rate                                 : 128 Kbps
Channel(s)                               : 2 channels
Sampling rate                            : 44.1 KHz
Compression mode                         : Lossy
Stream size                              : 45.0 MiB (6%)
Alignment                                : Split accross interleaves
Interleave, duration                     : 67 ms (2.00 video frames)
Interleave, preload duration             : 500 ms
Writing library                          : LAME3.98.2


Props to andrewka for DVDR source


SEED SEED SEED!!! Sharing is caring boys and girls, its what makes tpb tick!